<?xml version="1.0" encoding="utf-8"?>
<!-- Generator: Adobe Illustrator 21.0.0, SVG Export Plug-In . SVG Version: 6.00 Build 0)  -->
<svg version="1.1" id="Layer_1" xmlns="http://www.w3.org/2000/svg" xmlns:xlink="http://www.w3.org/1999/xlink" x="0px" y="0px"
	 viewBox="0 0 290 410" style="enable-background:new 0 0 290 410;" xml:space="preserve">
<style type="text/css">
	.st0{fill:none;stroke:#37A0AE;stroke-width:2;stroke-miterlimit:10;}
	.st1{fill:#37A0AE;}
</style>
<rect x="23.6" y="28.5" class="st0" width="31.1" height="34.4"/>
<path class="st1" d="M41.2,52h-2.4v-6.5l0-1.1l0-1.2c-0.4,0.4-0.7,0.7-0.8,0.8l-1.3,1l-1.1-1.4l3.6-2.9h2V52z"/>
<rect x="23.6" y="74" class="st0" width="31.1" height="34.4"/>
<path class="st1" d="M43.1,97.5h-7.9v-1.7l2.8-2.9c0.8-0.9,1.4-1.5,1.6-1.8c0.3-0.3,0.4-0.6,0.6-0.9c0.1-0.3,0.2-0.6,0.2-0.9
	c0-0.5-0.1-0.8-0.4-1s-0.6-0.3-1-0.3c-0.4,0-0.9,0.1-1.3,0.3c-0.4,0.2-0.8,0.5-1.3,0.9l-1.3-1.5c0.6-0.5,1-0.8,1.4-1
	c0.4-0.2,0.8-0.3,1.2-0.5c0.4-0.1,0.9-0.2,1.5-0.2c0.7,0,1.3,0.1,1.9,0.4c0.5,0.3,1,0.6,1.3,1.1s0.4,1,0.4,1.6c0,0.5-0.1,1-0.3,1.5
	c-0.2,0.5-0.5,0.9-0.8,1.4c-0.4,0.5-1.1,1.2-2,2l-1.5,1.4v0.1h4.9V97.5z"/>
<rect x="23.6" y="119.5" class="st0" width="31.1" height="34.4"/>
<path class="st1" d="M42.7,134.2c0,0.7-0.2,1.3-0.6,1.8c-0.4,0.5-1,0.8-1.8,1v0c0.9,0.1,1.6,0.4,2.1,0.8c0.5,0.4,0.7,1,0.7,1.8
	c0,1.1-0.4,1.9-1.2,2.5c-0.8,0.6-1.9,0.9-3.4,0.9c-1.2,0-2.3-0.2-3.3-0.6v-2c0.4,0.2,0.9,0.4,1.4,0.5c0.5,0.1,1,0.2,1.6,0.2
	c0.8,0,1.4-0.1,1.7-0.4c0.4-0.3,0.6-0.7,0.6-1.3c0-0.5-0.2-0.9-0.6-1.1c-0.4-0.2-1.1-0.3-2.1-0.3H37v-1.8h0.9c0.9,0,1.5-0.1,1.9-0.3
	c0.4-0.2,0.6-0.6,0.6-1.2c0-0.9-0.5-1.3-1.6-1.3c-0.4,0-0.7,0.1-1.1,0.2c-0.4,0.1-0.8,0.3-1.3,0.6l-1.1-1.6c1-0.7,2.3-1.1,3.7-1.1
	c1.2,0,2.1,0.2,2.8,0.7C42.4,132.7,42.7,133.4,42.7,134.2z"/>
<rect x="23.6" y="165" class="st0" width="31.1" height="34.4"/>
<path class="st1" d="M43.4,186.2H42v2.3h-2.3v-2.3h-4.8v-1.7l4.9-7.3H42v7.1h1.4V186.2z M39.7,184.3v-1.9c0-0.3,0-0.8,0-1.4
	c0-0.6,0-1,0.1-1.1h-0.1c-0.2,0.4-0.4,0.8-0.7,1.2l-2.1,3.1H39.7z"/>
<rect x="23.6" y="210.6" class="st0" width="31.1" height="34.4"/>
<path class="st1" d="M39.4,226.8c1.1,0,2,0.3,2.6,0.9c0.6,0.6,1,1.4,1,2.5c0,1.3-0.4,2.2-1.2,2.9c-0.8,0.7-1.9,1-3.3,1
	c-1.3,0-2.3-0.2-3-0.6v-2.1c0.4,0.2,0.9,0.4,1.4,0.5c0.5,0.1,1.1,0.2,1.5,0.2c1.5,0,2.2-0.6,2.2-1.8c0-1.1-0.8-1.7-2.3-1.7
	c-0.3,0-0.6,0-0.9,0.1c-0.3,0.1-0.6,0.1-0.8,0.2l-0.9-0.5l0.4-5.7h6.1v2h-4l-0.2,2.2l0.3-0.1C38.5,226.8,38.9,226.8,39.4,226.8z"/>
<rect x="23.6" y="256.1" class="st0" width="31.1" height="34.4"/>
<path class="st1" d="M35.2,274.7c0-2.2,0.5-3.9,1.4-5c0.9-1.1,2.4-1.6,4.2-1.6c0.6,0,1.1,0,1.5,0.1v1.9c-0.5-0.1-0.9-0.2-1.4-0.2
	c-0.8,0-1.5,0.1-2,0.4c-0.5,0.2-0.9,0.6-1.2,1.1c-0.3,0.5-0.4,1.2-0.5,2.1h0.1c0.5-0.9,1.3-1.3,2.4-1.3c1,0,1.8,0.3,2.4,0.9
	c0.6,0.6,0.9,1.5,0.9,2.6c0,1.2-0.3,2.2-1,2.9c-0.7,0.7-1.6,1.1-2.8,1.1c-0.8,0-1.6-0.2-2.2-0.6c-0.6-0.4-1.1-0.9-1.4-1.7
	C35.4,276.7,35.2,275.8,35.2,274.7z M39.3,277.8c0.5,0,0.9-0.2,1.2-0.5c0.3-0.3,0.4-0.8,0.4-1.5c0-0.6-0.1-1-0.4-1.3
	c-0.3-0.3-0.6-0.5-1.2-0.5c-0.5,0-0.9,0.2-1.2,0.5c-0.3,0.3-0.5,0.7-0.5,1.1c0,0.6,0.2,1.1,0.5,1.6
	C38.4,277.6,38.8,277.8,39.3,277.8z"/>
<rect x="23.6" y="301.6" class="st0" width="31.1" height="34.4"/>
<path class="st1" d="M36.4,325l4.2-9.3h-5.6v-2h8.1v1.5l-4.3,9.8H36.4z"/>
<rect x="23.6" y="347.1" class="st0" width="31.1" height="34.4"/>
<path class="st1" d="M39.2,359.1c1.1,0,2,0.2,2.6,0.7c0.7,0.5,1,1.2,1,2c0,0.6-0.2,1.1-0.5,1.5c-0.3,0.4-0.8,0.9-1.5,1.2
	c0.8,0.5,1.4,0.9,1.8,1.4c0.4,0.5,0.6,1,0.6,1.6c0,0.9-0.4,1.7-1.1,2.2c-0.7,0.6-1.7,0.8-2.9,0.8c-1.2,0-2.2-0.3-2.9-0.8
	c-0.7-0.5-1.1-1.3-1.1-2.2c0-0.6,0.2-1.2,0.5-1.7c0.3-0.5,0.9-0.9,1.6-1.3c-0.6-0.4-1.1-0.8-1.4-1.3c-0.3-0.5-0.4-1-0.4-1.5
	c0-0.8,0.3-1.5,1-2C37.2,359.4,38.1,359.1,39.2,359.1z M37.4,367.6c0,0.4,0.2,0.8,0.5,1c0.3,0.2,0.7,0.4,1.3,0.4
	c0.6,0,1-0.1,1.3-0.4c0.3-0.3,0.4-0.6,0.4-1c0-0.3-0.1-0.7-0.4-1c-0.3-0.3-0.8-0.6-1.4-1C37.9,366.2,37.4,366.8,37.4,367.6z
	 M39.1,360.9c-0.4,0-0.7,0.1-1,0.3c-0.2,0.2-0.4,0.5-0.4,0.8c0,0.3,0.1,0.6,0.3,0.8c0.2,0.2,0.6,0.5,1.1,0.8
	c0.5-0.2,0.9-0.5,1.1-0.7c0.2-0.2,0.3-0.5,0.3-0.9c0-0.4-0.1-0.6-0.4-0.8C39.9,361,39.5,360.9,39.1,360.9z"/>
</svg>
