<?xml version="1.0" encoding="utf-8"?>
<!-- Generator: Adobe Illustrator 21.0.0, SVG Export Plug-In . SVG Version: 6.00 Build 0)  -->
<svg version="1.1" id="Layer_1" xmlns="http://www.w3.org/2000/svg" xmlns:xlink="http://www.w3.org/1999/xlink" x="0px" y="0px"
	 viewBox="0 0 77.7 109.2" style="enable-background:new 0 0 77.7 109.2;" xml:space="preserve">
<style type="text/css">
	.st0{opacity:0.4;}
	.st1{fill:#878787;stroke:#878787;stroke-width:2;stroke-miterlimit:10;}
	.st2{fill:#FFFFFF;stroke:#6FC5D1;stroke-width:2;stroke-miterlimit:10;}
	.st3{fill:#878787;}
	.st4{fill:#6FC5D1;}
	.st5{fill:none;stroke:#E6F3F6;stroke-width:2;stroke-linecap:round;stroke-linejoin:round;stroke-miterlimit:10;}
	.st6{fill:#0C2443;}
</style>
<g id="Camada_2">
</g>
<g>
	<g class="st0">
		<path class="st1" d="M14.5,97.7c-0.6,0-1.1-0.4-1.1-1L4.9,9.8c0-0.3,0.1-0.6,0.3-0.8s0.5-0.4,0.8-0.4l60.5-5.9c0,0,0.1,0,0.1,0
			c0.6,0,1.1,0.4,1.1,1l8.5,86.8c0,0.3-0.1,0.6-0.3,0.8c-0.2,0.2-0.5,0.4-0.8,0.4l-60.6,5.9C14.5,97.7,14.5,97.7,14.5,97.7z"/>
	</g>
	<g>
		<path class="st2" d="M13.5,97c-0.6,0-1.1-0.4-1.1-1L3.9,9.2c0-0.3,0.1-0.6,0.3-0.8S4.6,8,4.9,7.9L65.5,2c0,0,0.1,0,0.1,0
			c0.6,0,1.1,0.4,1.1,1l8.5,86.8c0,0.3-0.1,0.6-0.3,0.8c-0.2,0.2-0.5,0.4-0.8,0.4L13.6,97C13.5,97,13.5,97,13.5,97z"/>
	</g>
	<g class="st0">
		<path class="st1" d="M11.1,96.5c-0.6,0-1.1-0.5-1.1-1.1l-1-87.2c0-0.3,0.1-0.6,0.3-0.8C9.5,7.1,9.7,7,10,7l60.8-0.7
			c0.6,0,1.1,0.5,1.1,1.1l1,87.2c0,0.6-0.5,1.1-1.1,1.1L11.1,96.5z"/>
	</g>
	<g>
		<path class="st2" d="M10.1,95.9c-0.6,0-1.1-0.5-1.1-1.1L8,7.5C8,7.2,8.1,7,8.3,6.7c0.2-0.2,0.5-0.3,0.8-0.3l60.8-0.7
			c0.6,0,1.1,0.5,1.1,1.1l1,87.2c0,0.6-0.5,1.1-1.1,1.1L10.1,95.9z"/>
	</g>
	<g class="st0">
		<path class="st1" d="M14,103.6c-0.6,0-1-0.4-1.1-1L2.5,16c-0.1-0.6,0.4-1.2,1-1.3l60.4-7.2c0,0,0.1,0,0.1,0c0.6,0,1,0.4,1.1,1
			l10.3,86.6c0,0.3,0,0.6-0.2,0.8c-0.2,0.2-0.5,0.4-0.8,0.4l-60.4,7.2C14.1,103.6,14.1,103.6,14,103.6z"/>
	</g>
	<g>
		<path class="st2" d="M13,103c-0.6,0-1-0.4-1.1-1L1.5,15.4c-0.1-0.6,0.4-1.2,1-1.3l60.4-7.2c0,0,0.1,0,0.1,0c0.6,0,1,0.4,1.1,1
			l10.3,86.6c0,0.3,0,0.6-0.2,0.8c-0.2,0.2-0.5,0.4-0.8,0.4L13.1,103C13.1,103,13,103,13,103z"/>
	</g>
	<g class="st0">
		<path class="st1" d="M11.6,101c-0.6,0-1.1-0.5-1.1-1.1V12.6c0-0.6,0.5-1.1,1.1-1.1h60.8c0.6,0,1.1,0.5,1.1,1.1v87.3
			c0,0.6-0.5,1.1-1.1,1.1L11.6,101L11.6,101z"/>
	</g>
	<g>
		<path class="st2" d="M10.6,100.3c-0.6,0-1.1-0.5-1.1-1.1V11.9c0-0.6,0.5-1.1,1.1-1.1h60.8c0.6,0,1.1,0.5,1.1,1.1v87.3
			c0,0.6-0.5,1.1-1.1,1.1L10.6,100.3L10.6,100.3z"/>
	</g>
	<g class="st0">
		<path class="st3" d="M72.8,105.3L12,108.1c-0.8,0-1.6-0.6-1.6-1.5L6.5,19.5c0-0.8,0.6-1.6,1.5-1.6l60.8-2.7c0.8,0,1.6,0.6,1.6,1.5
			l3.9,87.2C74.3,104.6,73.6,105.3,72.8,105.3z"/>
		<polygon class="st3" points="11.3,22.4 65.7,19.9 69.4,100.8 14.9,103.2 		"/>
		
			<rect x="28.6" y="49.9" transform="matrix(0.6746 -0.7382 0.7382 0.6746 -32.3336 49.8159)" class="st3" width="23.4" height="23.4"/>
		<path class="st3" d="M43.6,61.8l-2.7,3c-0.2,0.2-0.5,0.2-0.7,0l-3-2.7c-0.2-0.2-0.2-0.5,0-0.7l2.7-3c0.2-0.2,0.5-0.2,0.7,0l3,2.7
			C43.8,61.3,43.8,61.6,43.6,61.8z"/>
	</g>
	<g>
		<path class="st4" d="M71.5,104l-60.8,2.7c-0.8,0-1.6-0.6-1.6-1.5L5.2,18.1c0-0.8,0.6-1.6,1.5-1.6l60.8-2.7c0.8,0,1.6,0.6,1.6,1.5
			l3.9,87.2C73,103.2,72.3,103.9,71.5,104z"/>
		<polygon class="st5" points="10,21 64.5,18.6 68.1,99.4 13.6,101.9 		"/>
		
			<rect x="27.4" y="48.5" transform="matrix(0.6746 -0.7382 0.7382 0.6746 -31.7447 48.4358)" class="st5" width="23.4" height="23.4"/>
		<path class="st6" d="M42.3,60.5l-2.7,3c-0.2,0.2-0.5,0.2-0.7,0l-3-2.7c-0.2-0.2-0.2-0.5,0-0.7l2.7-3c0.2-0.2,0.5-0.2,0.7,0l3,2.7
			C42.5,59.9,42.5,60.2,42.3,60.5z"/>
	</g>
</g>
</svg>
