<?xml version="1.0" encoding="utf-8"?>
<!-- Generator: Adobe Illustrator 21.0.0, SVG Export Plug-In . SVG Version: 6.00 Build 0)  -->
<svg version="1.1" id="Layer_1" xmlns="http://www.w3.org/2000/svg" xmlns:xlink="http://www.w3.org/1999/xlink" x="0px" y="0px"
	 viewBox="0 0 290 410" style="enable-background:new 0 0 290 410;" xml:space="preserve">
<style type="text/css">
	.st0{fill:#6FC5D1;}
	.st1{fill:none;stroke:#E6F3F6;stroke-width:2.5;stroke-linecap:round;stroke-linejoin:round;stroke-miterlimit:10;}
	.st2{fill:#0C2443;}
</style>
<path class="st0" d="M290,410H0V0h290V410z"/>
<path class="st1" d="M11,397.2V12.8c0-1,0.8-1.8,1.8-1.8h264.4c1,0,1.8,0.8,1.8,1.8v384.4c0,1-0.8,1.8-1.8,1.8H12.8
	C11.8,399,11,398.2,11,397.2z"/>
<rect x="91.7" y="151.8" transform="matrix(0.7071 -0.7071 0.7071 0.7071 -102.5526 162.578)" class="st1" width="106.5" height="106.5"/>
<path class="st2" d="M159.8,206.6l-13.1,13.1c-0.9,0.9-2.5,0.9-3.4,0l-13.1-13.1c-0.9-0.9-0.9-2.5,0-3.4l13.1-13.1
	c0.9-0.9,2.5-0.9,3.4,0l13.1,13.1C160.7,204.3,160.7,205.7,159.8,206.6z"/>
</svg>
