<?xml version="1.0" encoding="utf-8"?>
<!-- Generator: Adobe Illustrator 21.0.0, SVG Export Plug-In . SVG Version: 6.00 Build 0)  -->
<svg version="1.1" id="Layer_1" xmlns="http://www.w3.org/2000/svg" xmlns:xlink="http://www.w3.org/1999/xlink" x="0px" y="0px"
	 viewBox="0 0 200 200" style="enable-background:new 0 0 200 200;" xml:space="preserve">
<style type="text/css">
	.st0{fill:#0C2443;}
	.st1{fill:#74C4DD;}
	.st2{opacity:0.55;fill:#E6F3F6;enable-background:new    ;}
	.st3{fill:#771C2B;}
	.st4{fill:#C83643;}
	.st5{opacity:0.56;fill:#E6F3F6;enable-background:new    ;}
	.st6{fill:#25939E;}
	.st7{fill:#5DDDE7;}
</style>
<g id="Camada_2">
</g>
<g id="Camada_1">
	<g>
		<g>
			<polygon class="st0" points="97.1,27.9 99.1,35.2 99.1,45.4 93.3,37 			"/>
			<polygon class="st0" points="29.6,58.1 33.9,64.1 41,70.4 39.4,62.3 			"/>
			<path class="st0" d="M66.3,92.6L55.5,71.8L62.8,54l20.8-1.2l14.5,20.4l4.5-16.9L84.4,39.8l-14.5,3.4L52.6,48l-5.7,13.2l-1.3,18.1
				c0,0,7,13.2,8.2,13.8C55,93.7,66.3,92.6,66.3,92.6z"/>
			<polygon class="st0" points="119.8,55.5 119.1,61.5 109.9,70.4 109.9,60.7 			"/>
			<polygon class="st0" points="35.2,93.4 42.7,97.3 51.1,96.1 56.9,100.2 60.8,113.3 70,116.8 76.3,109 82.3,108.5 91.8,117.3 
				102.3,112.6 101.4,99 105,95.1 116.5,96.1 120.5,80.1 105.6,76.2 85.8,94.7 48,88.9 			"/>
			<path class="st1" d="M112.5,73.3l-0.3-10.6l7.6-7.2L115,44.7l-10.4,0.8l-7.7-7.3l0.2-10.4l-11-4.2l-6.8,7.9l-10.6,0.3l-7.2-7.6
				l-10.8,5l0.8,10.4l-7.3,7.7L33.8,47l-4.2,11l7.9,6.8l0.3,10.6l-7.4,7.3l4.8,10.8l10.4-0.8l7.7,7.3l-0.2,10.4l11,4.2l6.8-7.9
				l10.5-0.4l7.2,7.6l10.8-4.9l-0.8-10.4l7.3-7.7l10.4,0.2l4.2-11L112.5,73.3z M88.9,88.9l-25.7,1.3l-12.1-20l9.5-21.4l25-1l12,19.1
				L88.9,88.9z"/>
			<path class="st2" d="M49.3,69.7l10-22.5l26.9-1l9.2-8.5l0.1-9.3l-9-3.4L80,32.7L68.1,33l-6.9-7.3l-9,4.3l1.2,10.1l-8,8.6
				l-10.9-0.1L31,57.5l7.9,6.6v12.1L32,83.1l3.4,6.5c0.6-0.5,1.9-1.6,1.9-1.6L36,84.1l3.5,2l-0.9-3.9l3.3,1.9l-1-3.5l2.8,1.8
				c0,0,7.9-6.6,8.7-7.2L49.3,69.7z"/>
		</g>
		<g>
			<polygon class="st3" points="157.3,95.2 151,94.3 143.5,97.9 150.3,101.4 			"/>
			<polygon class="st3" points="103.6,150.9 103,144.8 106.3,137.4 109.8,141.5 			"/>
			<polygon class="st3" points="129.9,165.1 125.5,160.3 122.4,150.9 130.4,156 			"/>
			<polygon class="st3" points="172.6,120.8 168.6,118 160.1,114.7 162.3,120.8 			"/>
			<polygon class="st3" points="95.4,132.1 93.4,127 93.4,120.2 101.9,116.9 104.5,110.4 100.8,102.2 109,93.7 117.1,97.3 
				121.6,95.1 124.4,86.5 135.6,86.5 138.1,87.7 134,99.7 113.8,117.7 104.4,128.7 			"/>
			<polygon class="st3" points="115.4,124.3 123.6,136.3 134,139 143.3,134.9 147,126.2 144.8,116.1 131.8,106.6 142.4,106.6 
				154.1,112.9 157.6,122.9 150.3,144 115.4,147.4 			"/>
			<path class="st4" d="M172.8,130.6l-0.2-9.8l-8.3-2.8l-3.5-8.1l3.6-7.9l-7.1-6.8l-7.8,3.9l-8.2-3.2l-3.1-8.1l-9.8,0.2l-2.8,8.3
				l-8.1,3.4l-7.9-3.6l-6.8,7.1l3.9,7.8l-3.2,8.2l-8.1,3.1l0.2,9.8l8.3,2.8l3.5,8.1l-3.6,7.9l7.1,6.8l7.8-3.9l8.2,3.2l3.1,8.1
				l9.8-0.2l2.8-8.3l8.1-3.5l7.9,3.6l6.8-7.1l-3.9-7.8l3.2-8.2L172.8,130.6z M134.6,144l-12.6-5l-5.6-12.6l4.3-12.1l13.3-5.9l13.5,6
				l4.3,13l-4.5,10.6L134.6,144z"/>
			<polygon class="st5" points="171.6,130.4 171.4,121.3 163.9,119.1 159.9,110.3 162.3,104.9 158.3,108.5 158.8,111.7 156.6,110 
				158.1,113.6 154.6,111.8 156.4,115.1 152.9,113.2 154.4,116.9 151,114.8 149.3,116.3 152.8,127.5 147.9,138.9 134.9,145.4 
				121.3,140.2 106.3,151.5 111.3,156.1 118.8,152.5 127.8,155.8 130.8,164.4 138.9,163.9 141.4,156 150.9,152 158.6,155.2 
				164.1,149.6 160.3,141.5 163.8,132.8 			"/>
		</g>
		<g>
			<polygon class="st6" points="53.3,137.2 57.7,135 63.7,135 58.5,139.2 			"/>
			<polygon class="st6" points="104.6,158.7 103.8,153.8 98.4,148.8 98.3,155.3 			"/>
			<polygon class="st6" points="91.4,175.6 93.4,170.4 93.3,163.6 89.8,165.5 89.3,172.5 			"/>
			<polygon class="st6" points="50.5,158.5 52.2,154.2 58.4,148.4 57.1,154.2 			"/>
			<path class="st6" d="M76.8,139.8l-5.8,13.9l13.4,5.9c0,0-1.4,4.2-1.9,4c-0.6-0.1-20.3-7.2-20.3-7.2l2.3-11.9l6.5-7.3L76.8,139.8z
				"/>
			<polygon class="st6" points="63.7,126.7 69.4,123 73.1,121.8 76.8,126.4 81.1,126.4 86.3,121.5 93.3,124.7 92.5,131.6 
				95.1,134.6 101.8,134.2 104.6,142.1 104.6,143.8 92.1,141.8 72.3,136.3 			"/>
			<path class="st7" d="M100,148.1l4.7-4.2l-2.7-6.5l-6.3,0.3l-4.5-4.5l0.3-6.3l-6.5-2.7l-4.2,4.6h-6.4l-4.2-4.7l-6.5,2.7l0.3,6.3
				l-4.5,4.5l-6.3-0.3l-2.7,6.5l4.6,4.2v6.4l-4.7,4.2l2.7,6.5l6.3-0.3l4.5,4.5l-0.3,6.3l6.5,2.8l4.2-4.6h6.4l4.2,4.7l6.5-2.7
				l-0.3-6.3l4.5-4.5l6.3,0.3l2.7-6.5l-4.6-4.2V148.1z M81.9,161.9l-15-6.3l6.3-15l15,6.3L81.9,161.9z"/>
			<polygon class="st2" points="98.6,155.1 98.6,147.3 103.4,143.7 101.5,138.4 95.3,138.9 93.6,137.6 84.8,143.9 89.8,145.8 
				82.8,163.1 67.1,156.9 57.4,163.4 60.9,163.6 65.8,168.3 64.9,174.6 69.4,176.7 72.4,174.2 73.8,172.3 76.8,172.7 89.4,164 
				89.1,161 92.3,162 91.5,157.6 95.3,159.9 95.4,156.4 98.5,157.7 100.4,156.4 			"/>
		</g>
	</g>
</g>
<g id="Camada_3">
</g>
</svg>
