<?xml version="1.0" encoding="utf-8"?>
<!-- Generator: Adobe Illustrator 21.0.0, SVG Export Plug-In . SVG Version: 6.00 Build 0)  -->
<svg version="1.1" id="Layer_1" xmlns="http://www.w3.org/2000/svg" xmlns:xlink="http://www.w3.org/1999/xlink" x="0px" y="0px"
	 viewBox="0 0 200 200" style="enable-background:new 0 0 200 200;" xml:space="preserve">
<style type="text/css">
	.st0{fill:#771C2B;}
	.st1{fill:#25939E;}
	.st2{fill:#5DDDE7;}
	.st3{fill:#094448;}
	.st4{fill:#E6F3F6;}
	.st5{fill:#C83643;}
	.st6{fill:#DE6776;}
</style>
<g id="Camada_2">
</g>
<g id="Camada_1">
	<g>
		<polygon class="st0" points="38.2,152 46,145.5 54.3,129.5 67.3,110.6 78.7,105.4 90.6,98.2 106.4,107.1 108.1,109.7 106.2,115.4 
			105.4,120.9 100.8,121.9 96.6,116.6 96.6,113.1 87.3,112.5 92.9,118.3 99.9,124.6 99.9,128.5 96.3,135.1 94.9,144.7 86.7,147.8 
			84.7,148.2 83.6,151.4 72.3,152.5 71.8,155.3 69.3,159.3 60.5,160.7 45.7,177.9 27.3,158.1 		"/>
		<polygon class="st1" points="70.6,131 98.8,95.5 101.1,96 101.9,94.8 94.6,91.8 85.8,72.7 85.3,58.3 91.3,42.1 104.8,31.1 
			125.8,23 148.3,26.4 160.6,34.2 170.1,46.1 172.1,66.8 158.6,89.5 145.6,98.4 123.3,100.7 105.1,95.8 104.2,97.1 105.8,98.1 
			106.8,100.4 71.2,143.7 60.8,143.9 		"/>
		<polygon class="st2" points="115.6,87 97.3,77.7 92.7,65.9 93.3,51.4 107.4,36.6 126.4,29.3 146.3,33 159.8,44.1 160.6,60.6 
			154.8,74.7 139.3,85.8 		"/>
		<polygon class="st3" points="172.1,66.8 170.1,46.1 160.6,34.2 167.9,44.7 167.1,63.9 157.1,81.6 140.9,93.8 118.8,95.4 
			94.4,86.3 85.7,69.6 85.9,73 94.6,91.8 101.9,94.8 105.1,95.8 123.3,100.7 145.6,98.4 158.6,89.5 		"/>
		<polygon class="st3" points="109.3,39.5 127.2,32.5 146.4,35.2 153.3,38.6 146.6,33 126.4,29.3 107.4,36.6 93.3,51.4 92.7,65.9 
			97.3,77.7 99.7,78.9 95.9,66.7 96.7,53.9 		"/>
		<polygon class="st4" points="124.3,36.6 116.1,40 115.2,43.1 121.8,43.7 128.9,39.4 128.1,36.4 		"/>
		<polygon class="st4" points="101.2,96.1 104.1,97.2 106.1,94.3 105.1,93.3 103.9,93 103.1,93.2 		"/>
		<polygon class="st5" points="49,145.1 57.2,127.6 64.3,119.1 74.1,116.7 84.9,108.3 91.7,97.5 95.7,96.7 98.9,98.2 100.3,101.1 
			97.4,110.6 86.7,121.5 81.2,141.4 70.8,147.1 63.3,151.8 		"/>
		<polygon class="st6" points="92.3,98.5 93.9,98.4 96.8,99.5 98.8,101.3 95.8,105.9 93.3,105.9 90.9,104.4 90.3,102.6 		"/>
		<polygon class="st5" points="103.6,110.4 98.3,114.1 98.2,116.8 100.9,121 104.8,120.6 105.3,115.6 107.2,110.9 		"/>
		<polygon class="st5" points="97.9,124.4 99.4,124.9 99.9,128.5 96.3,135.1 84.8,136.2 86.8,129 93.3,126.8 96.3,127.8 93.8,125.7 
			94.9,123 		"/>
		<polygon class="st5" points="95.4,135.7 94.9,144.7 89.9,146.2 84.7,146.9 79.4,144.6 83.4,141 84.3,138.1 		"/>
		<polygon class="st5" points="83.6,151.4 72.3,152.5 73.8,147.1 78.6,145.2 84.3,148.6 		"/>
		<polygon class="st0" points="85.3,110.8 88.3,111.6 90.6,113.9 		"/>
		<polygon class="st5" points="48.3,146 62.7,146.2 60.5,154.8 40.3,170.7 27.9,158.4 35.7,154.4 		"/>
		<polygon class="st5" points="57.8,159 56.3,162.8 43.5,175.3 		"/>
	</g>
</g>
<g id="Camada_3">
</g>
</svg>
