<?xml version="1.0" encoding="utf-8"?>
<!-- Generator: Adobe Illustrator 21.0.0, SVG Export Plug-In . SVG Version: 6.00 Build 0)  -->
<svg version="1.1" id="Layer_1" xmlns="http://www.w3.org/2000/svg" xmlns:xlink="http://www.w3.org/1999/xlink" x="0px" y="0px"
	 viewBox="0 0 200 200" style="enable-background:new 0 0 200 200;" xml:space="preserve">
<style type="text/css">
	.st0{fill:#5DDDE7;}
	.st1{fill:#094448;}
</style>
<g id="Camada_2">
</g>
<g id="Camada_1">
	<g>
		<path class="st0" d="M84.5,114.5c-0.3-0.9,0.2-1.9,1-2.2c0.9-0.3,1.9,0.2,2.2,1c5.6,16.1,20.8,26.9,37.8,26.9
			c8,0,15.7-2.4,22.4-6.8c0.7-0.5,1.4-1,2.1-1.5c0.6-0.5,1.5-0.5,2.1,0c5.4-9.1,8.4-19.7,8.4-31c0-10.9-2.8-21-7.8-29.9
			c-0.1,0.1-0.2,0.2-0.3,0.3c-0.3,0.2-0.6,0.2-0.9,0.2c-0.6,0-1.2-0.3-1.5-0.9c-6.1-10.5-15.5-19.1-26.6-24.1
			c-0.8-0.4-1.2-1.4-0.9-2.2c-1.1-0.4-2.1-0.8-3.2-1.2c-0.3,0.8-1.3,1.3-2.1,1c-5.9-1.9-12.1-2.9-18.3-2.9
			c-20.9,0-40.5,11.3-51.1,29.5c-0.3,0.5-0.9,0.9-1.5,0.9c-0.2,0-0.5-0.1-0.7-0.2c-4.8,8.8-7.6,18.8-7.6,29.5
			c0,18.2,8,34.6,20.6,45.8c-8.7-12.7-13.7-27.5-14.3-43c0-0.9,0.7-1.7,1.6-1.8c0.9,0,1.7,0.7,1.8,1.6c0.6,15.2,5.7,29.8,14.6,42.1
			c0.6,0.8,0.4,1.8-0.4,2.4c-0.3,0.2-0.7,0.3-1,0.3h-0.1c1,0.8,2.1,1.6,3.2,2.4c0,0,0,0,0.1-0.1c0.7-0.6,1.8-0.5,2.4,0.2
			c1,1.2,2,2.3,3.1,3.4c3.8,2.2,7.9,3.9,12.2,5.2c-3.8-2.8-7.3-6-10.6-9.6c-12.6-13.5-19.4-31.1-19.4-49.6c0-2.8,0.2-5.5,0.7-8.2
			c0.2-0.9,1-1.5,2-1.4c0.9,0.2,1.5,1,1.4,2c-0.4,2.5-0.7,5.1-0.7,7.6c0,26.2,14.1,49.2,35.6,61.3c2.8,0.4,5.7,0.6,8.6,0.6
			c0.8,0,1.7,0,2.5-0.1c-1.1-0.4-2.2-0.9-3.2-1.3c-0.9-0.4-1.2-1.4-0.9-2.3c0.4-0.9,1.4-1.2,2.3-0.9c3.3,1.5,6.7,2.7,10.2,3.5
			c3.3-0.6,6.5-1.5,9.6-2.6c-2-0.2-4.1-0.5-6.1-0.9c-0.9-0.2-1.5-1.1-1.3-2s1.1-1.5,2-1.3c4.2,0.9,8.5,1.2,12.7,1.1
			c2.9-1.5,5.7-3.2,8.3-5.1c-3.3,0.6-6.6,1-9.9,1c-7.8,0-15.3-1.7-22.3-5.1c-0.8-0.4-1.2-1.4-0.8-2.3c0.4-0.8,1.4-1.2,2.3-0.8
			c6.5,3.2,13.5,4.8,20.8,4.8c3.3,0,6.6-0.3,9.9-1c2.2-0.5,4.3-1.1,6.4-1.8c2.6-2.5,4.9-5.2,7.1-8.1c-7,4.4-15,6.8-23.3,6.8
			C107.1,143.6,90.6,132,84.5,114.5z M99.1,139.8c0.8,0.5,1,1.6,0.5,2.4c-0.3,0.5-0.9,0.8-1.4,0.8c-0.3,0-0.7-0.1-1-0.3
			c-14.2-9.6-22.7-25.5-22.7-42.5c0-13.5,11-24.5,24.5-24.5c0.4,0,0.8,0,1.2,0c0.9,0,1.7,0.8,1.6,1.8c0,0.9-0.9,1.7-1.8,1.6
			c-0.3,0-0.7,0-1,0c-11.6,0-21.1,9.4-21.1,21.1C77.9,116.1,85.8,130.9,99.1,139.8z M99,60.6c13,0,25.2,6.4,32.6,17.1
			c0.5,0.8,0.3,1.8-0.4,2.4c-0.3,0.2-0.6,0.3-1,0.3c-0.5,0-1.1-0.3-1.4-0.7C122,69.9,110.9,64,99,64c-8.1,0-15.8,2.6-22.2,7.6
			c-0.7,0.6-1.8,0.4-2.4-0.3c-0.6-0.7-0.4-1.8,0.3-2.4C81.7,63.5,90.1,60.6,99,60.6z M97.3,54.7c0-0.9,0.8-1.7,1.7-1.7
			c7.7,0,15.4,1.9,22.2,5.5c0.8,0.4,1.1,1.5,0.7,2.3c-0.3,0.6-0.9,0.9-1.5,0.9c-0.3,0-0.5-0.1-0.8-0.2c-6.3-3.4-13.4-5.1-20.6-5.1
			C98,56.4,97.3,55.7,97.3,54.7z M132,85.3c-0.4-0.9,0-1.9,0.9-2.3c0.9-0.4,1.9,0,2.3,0.9c2.3,5.1,3.5,10.6,3.5,16.3
			c0,1.8-0.4,3.6-1.1,5.2c-0.3,0.6-0.9,1-1.6,1c-0.2,0-0.5,0-0.7-0.1c-0.9-0.4-1.3-1.4-0.9-2.2c0.5-1.2,0.8-2.5,0.8-3.9
			C135.2,95,134.1,90,132,85.3z M142.8,100.2c0-13.8-6.6-26.9-17.7-35.2c-0.8-0.6-0.9-1.6-0.4-2.4c0.6-0.8,1.6-0.9,2.4-0.4
			c12,8.9,19.1,23.1,19.1,37.9c0,11.4-9.3,20.7-20.7,20.7c-4.3,0-8.5-1.3-12-3.8c-0.8-0.5-0.9-1.6-0.4-2.4s1.6-0.9,2.4-0.4
			c2.9,2.1,6.4,3.2,10,3.2C135.1,117.5,142.8,109.7,142.8,100.2z M99,68.2c17.7,0,32,14.4,32,32c0,3-2.5,5.5-5.5,5.5
			s-5.5-2.5-5.5-5.5c0-8.7-5.5-16.7-13.7-19.7c-0.9-0.3-1.3-1.3-1-2.2s1.3-1.3,2.2-1c9.5,3.6,15.9,12.8,15.9,22.9
			c0,1.2,0.9,2.1,2.1,2.1s2.1-0.9,2.1-2.1c0-15.8-12.8-28.6-28.6-28.6c-13.5,0-25.3,9.6-28,22.8c-0.2,0.9-1.1,1.5-2,1.3
			s-1.5-1.1-1.3-2C70.7,78.9,83.9,68.2,99,68.2z M68.6,99.1L68.6,99.1c1,0,1.7,0.8,1.7,1.7c0.1,10.3,3.1,20.3,8.5,28.9
			c0.5,0.8,0.3,1.9-0.5,2.4c-0.3,0.2-0.6,0.3-0.9,0.3c-0.6,0-1.1-0.3-1.4-0.8c-5.8-9.2-9-19.8-9.1-30.7
			C66.9,99.8,67.7,99.1,68.6,99.1z M85.5,100.2c0,2.3,0.2,4.6,0.6,6.8c0.2,0.9-0.5,1.8-1.4,2s-1.8-0.5-2-1.4
			c-0.4-2.4-0.6-4.9-0.6-7.4c0-9.3,7.6-16.9,16.9-16.9s16.9,7.6,16.9,16.9c0,5.3,4.3,9.7,9.7,9.7c1.8,0,3.6-0.5,5.2-1.5
			c0.8-0.5,1.9-0.3,2.4,0.5s0.3,1.9-0.5,2.4c-2.1,1.3-4.5,2-7,2c-7.2,0-13.1-5.9-13.1-13.1c0-7.4-6-13.5-13.5-13.5
			S85.5,92.8,85.5,100.2z M122.7,136L122.7,136c-9-0.7-17.3-4.8-23.4-11.4c-6.2-6.6-9.5-15.3-9.5-24.3c0-5.1,4.2-9.3,9.3-9.3
			c5.1,0,9.3,4.2,9.3,9.3c0,3.5,1,6.8,3,9.6c0.5,0.8,0.3,1.8-0.5,2.4c-0.8,0.5-1.8,0.3-2.4-0.5c-2.3-3.4-3.5-7.4-3.5-11.6
			c0-3.2-2.6-5.9-5.9-5.9c-3.2,0-5.9,2.6-5.9,5.9c0,16.8,13.1,31,29.8,32.3c0.9,0.1,1.6,0.9,1.6,1.8
			C124.4,135.3,123.6,136,122.7,136z M97.3,100.2c0-0.9,0.8-1.7,1.7-1.7s1.7,0.8,1.7,1.7c0,13.7,11.1,24.8,24.8,24.8
			c12.5,0,23.1-9.3,24.6-21.7c0.1-0.9,1-1.6,1.9-1.5s1.6,1,1.5,1.9c-1.8,14-13.9,24.6-28,24.6C110,128.5,97.3,115.8,97.3,100.2z
			 M153.4,122.7c-2.6,3.2-5.6,5.9-9.1,8c-4.4,2.7-9.3,4.4-14.5,5.1c-0.1,0-0.1,0-0.2,0c-0.9,0-1.6-0.6-1.7-1.5
			c-0.1-0.9,0.6-1.8,1.5-1.9c4.7-0.6,9.1-2.1,13.1-4.6c3.2-1.9,5.9-4.4,8.3-7.3c0.6-0.7,1.7-0.8,2.4-0.3
			C153.9,120.8,154,122,153.4,122.7z M82.9,47.8c5.2-1.6,10.6-2.4,16-2.4c28.8,0,52.9,22.5,54.7,51.3c0.1,0.9-0.7,1.8-1.6,1.8h-0.1
			c-0.9,0-1.6-0.7-1.7-1.6C148.6,69.9,126,48.8,99,48.8c-5.1,0-10.2,0.8-15,2.2c-0.9,0.3-1.9-0.2-2.1-1.1C81.5,49,82,48.1,82.9,47.8
			z M47.7,96.8c-0.1,0.9-0.8,1.6-1.7,1.6h-0.1c-0.9-0.1-1.7-0.9-1.6-1.8c1.3-20.2,13.6-38,32.1-46.4c0.9-0.4,1.9,0,2.3,0.8
			c0.4,0.9,0,1.9-0.8,2.3C60.4,61.3,48.9,77.9,47.7,96.8z M55.9,87.2c-0.2,0-0.4,0-0.6-0.1c-0.9-0.3-1.4-1.3-1.1-2.2
			c2.9-8,7.8-15.2,14.4-20.8s14.6-9.2,23.1-10.6c0.9-0.1,1.8,0.5,2,1.4c0.1,0.9-0.5,1.8-1.4,2C76.2,59.4,62.9,70.6,57.6,86
			C57.3,86.7,56.6,87.2,55.9,87.2z M64.7,123.2c-0.7,0-1.4-0.4-1.6-1.1c-2.5-7-3.7-14.3-3.7-21.8c0-9.8,3.6-19.2,10.2-26.5
			c0.6-0.7,1.7-0.8,2.4-0.1c0.7,0.6,0.8,1.7,0.1,2.4c-6,6.7-9.3,15.3-9.3,24.2c0,7.1,1.2,14,3.5,20.7c0.3,0.9-0.2,1.9-1,2.2
			C65,123.2,64.8,123.2,64.7,123.2z M94.7,156.9c-0.3,0.5-0.9,0.9-1.5,0.9c-0.3,0-0.6-0.1-0.9-0.2c-11.7-6.8-20.9-16.8-26.7-29
			c-0.4-0.9,0-1.9,0.8-2.3c0.9-0.4,1.9,0,2.3,0.8c5.5,11.6,14.2,21.1,25.3,27.5C94.9,155,95.2,156,94.7,156.9z M108.1,152.5
			c0.9,0.3,1.4,1.3,1.1,2.2c-0.2,0.7-0.9,1.2-1.6,1.2c-0.2,0-0.4,0-0.5-0.1c-10.5-3.5-19.8-9.9-26.9-18.6c-0.6-0.7-0.5-1.8,0.2-2.4
			c0.7-0.6,1.8-0.5,2.4,0.2C89.4,143.1,98.2,149.3,108.1,152.5z"/>
		<path class="st1" d="M97,39.8c7,0,13.8,1.2,20.1,3.4v-0.1c0.3-0.9-0.2-1.9-1.1-2.2c-6.2-2-12.8-3.1-19.4-3.1
			c-22.2,0-42.8,11.9-54,31.2c-0.5,0.8-0.2,1.9,0.6,2.3c0.1,0,0.1,0.1,0.2,0.1C53.9,52.5,73.9,39.8,97,39.8z"/>
		<path class="st1" d="M45.6,70.7c10.6-18.2,30.1-29.5,51.1-29.5c6.3,0,12.4,1,18.3,2.9c0.9,0.3,1.8-0.2,2.1-1
			c-6.3-2.2-13-3.4-20.1-3.4c-23.1,0-43.2,12.8-53.6,31.7c0.2,0.1,0.5,0.2,0.7,0.2C44.7,71.6,45.3,71.3,45.6,70.7z"/>
		<path class="st1" d="M150.4,71.1c0.5-0.5,0.7-1.4,0.3-2.1c-6.5-11.1-16.4-20.2-28.1-25.5c-0.9-0.4-1.9,0-2.3,0.8l0,0
			C133.1,49.6,143.7,59.1,150.4,71.1z"/>
		<path class="st1" d="M121.2,46.6c11,5.1,20.5,13.6,26.6,24.1c0.3,0.5,0.9,0.9,1.5,0.9c0.3,0,0.6-0.1,0.9-0.2
			c0.1-0.1,0.2-0.2,0.3-0.3c-6.7-12-17.3-21.4-30.1-26.7C120,45.2,120.3,46.2,121.2,46.6z"/>
		<path class="st1" d="M52.5,49.9c0.4,0,0.8-0.1,1.1-0.4C65,39.8,79.4,34.2,94.3,33.7c0.9,0,1.7-0.8,1.6-1.8c0-0.9-0.8-1.7-1.8-1.6
			c-15.6,0.6-30.8,6.5-42.8,16.6c-0.7,0.6-0.8,1.7-0.2,2.4C51.5,49.7,52,49.9,52.5,49.9z"/>
		<path class="st1" d="M99.3,32c-0.1,0.9,0.7,1.8,1.6,1.8c14.4,0.9,27.8,6.4,38.8,15.7c0.3,0.3,0.7,0.4,1.1,0.4c0.5,0,1-0.2,1.3-0.6
			c0.6-0.7,0.5-1.8-0.2-2.4c-11.6-9.9-25.7-15.6-40.8-16.5C100.2,30.3,99.4,31,99.3,32z"/>
		<path class="st1" d="M62.4,34.5c10.5-5.5,22.3-8.4,34.2-8.4s23.7,2.9,34.2,8.4c0.3,0.1,0.5,0.2,0.8,0.2c0.6,0,1.2-0.3,1.5-0.9
			c0.4-0.8,0.1-1.9-0.7-2.3c-10.9-5.8-23.3-8.8-35.7-8.8s-24.8,3-35.8,8.8c-0.8,0.4-1.2,1.5-0.7,2.3C60.6,34.6,61.6,34.9,62.4,34.5z
			"/>
		<path class="st1" d="M76,171.5c-9.2-6.1-17.1-13.9-23.4-23c-2.6-3.9-5-8-7-12.2c-0.4-0.9-1.4-1.2-2.3-0.8
			c-0.9,0.4-1.2,1.4-0.8,2.3c2.1,4.4,4.5,8.7,7.2,12.7c6.5,9.5,14.7,17.6,24.3,24c0.3,0.2,0.6,0.3,0.9,0.3c0.6,0,1.1-0.3,1.4-0.8
			C77,173,76.8,172,76,171.5z"/>
		<path class="st1" d="M123.2,158.8c4.7,0,9.4-0.6,13.9-1.7c0.7-0.2,1.4-0.4,2.1-0.6c0.9-0.3,1.4-1.2,1.2-2.1
			c-0.3-0.9-1.2-1.4-2.1-1.2c-0.7,0.2-1.3,0.4-2,0.5c-3.7,0.9-7.5,1.4-11.4,1.5c-2.4,1.2-4.8,2.3-7.4,3.2
			C119.4,158.6,121.3,158.8,123.2,158.8z"/>
		<path class="st1" d="M112.2,154.3c-0.9-0.2-1.8,0.4-2,1.3c-0.2,0.9,0.4,1.8,1.3,2c2,0.4,4,0.7,6.1,0.9c2.5-0.9,5-2,7.4-3.2
			C120.6,155.5,116.3,155.1,112.2,154.3z"/>
		<path class="st1" d="M80.5,135.1c-0.6-0.7-1.7-0.8-2.4-0.2s-0.8,1.7-0.2,2.4c7.1,8.6,16.4,15.1,26.9,18.6c0.2,0.1,0.4,0.1,0.5,0.1
			c0.7,0,1.4-0.5,1.6-1.2c0.3-0.9-0.2-1.9-1.1-2.2C95.9,149.3,87.1,143.1,80.5,135.1z"/>
		<path class="st1" d="M64.6,100.8c0.1,10.9,3.2,21.5,9.1,30.7c0.3,0.5,0.9,0.8,1.4,0.8c0.3,0,0.6-0.1,0.9-0.3
			c0.8-0.5,1-1.6,0.5-2.4c-5.5-8.7-8.4-18.7-8.5-28.9c0-0.9-0.8-1.7-1.7-1.7l0,0C65.4,99.1,64.6,99.8,64.6,100.8z"/>
		<path class="st1" d="M66.6,95.7c0.9,0.2,1.8-0.4,2-1.3c2.8-13.2,14.5-22.8,28-22.8c15.8,0,28.6,12.8,28.6,28.6
			c0,1.2-0.9,2.1-2.1,2.1s-2.1-0.9-2.1-2.1c0-10.2-6.4-19.4-15.9-22.9c-0.9-0.3-1.9,0.1-2.2,1c-0.3,0.9,0.1,1.9,1,2.2
			c8.2,3.1,13.7,11,13.7,19.7c0,3,2.5,5.5,5.5,5.5s5.5-2.5,5.5-5.5c0-17.7-14.4-32.1-32.1-32.1c-15.1,0-28.3,10.7-31.4,25.5
			C65.1,94.6,65.7,95.5,66.6,95.7z"/>
		<path class="st1" d="M96.7,79.2c0.3,0,0.7,0,1,0c0.9,0,1.7-0.7,1.8-1.6c0-0.9-0.7-1.7-1.6-1.8c-0.4,0-0.8,0-1.2,0
			c-13.5,0-24.5,11-24.5,24.5c0,17,8.5,32.8,22.6,42.4c0.3,0.2,0.6,0.3,1,0.3c0.5,0,1.1-0.3,1.4-0.8c0.5-0.8,0.3-1.8-0.5-2.4
			c-13.2-8.9-21.1-23.7-21.1-39.5C75.6,88.6,85.1,79.2,96.7,79.2z"/>
		<path class="st1" d="M133.8,150c4.2-0.9,8.2-2.3,12-4.2c0.8-0.4,1.2-1.4,0.8-2.3c-0.4-0.8-1.4-1.2-2.3-0.8
			c-1.6,0.8-3.2,1.5-4.9,2.1c-2,1.9-4.1,3.7-6.3,5.3C133.4,150.1,133.6,150.1,133.8,150z"/>
		<path class="st1" d="M123.2,147.8c-7.3,0-14.3-1.6-20.8-4.8c-0.8-0.4-1.9-0.1-2.3,0.8c-0.4,0.8-0.1,1.9,0.8,2.3
			c7,3.4,14.5,5.1,22.3,5.1c3.3,0,6.7-0.3,9.9-1c2.2-1.6,4.3-3.4,6.3-5.3c-2.1,0.8-4.2,1.4-6.4,1.8
			C129.9,147.5,126.6,147.8,123.2,147.8z"/>
		<path class="st1" d="M119.3,166.3c1.3,0.1,2.6,0.1,3.9,0.1c2.1,0,4.2-0.1,6.3-0.3c0.9-0.1,1.6-0.9,1.5-1.9
			c-0.1-0.9-0.9-1.6-1.9-1.5c-3.2,0.3-6.4,0.4-9.6,0.2c-3.9-0.2-7.8-0.8-11.6-1.8c-2.7,0.5-5.5,0.8-8.4,0.9
			C105.9,164.5,112.5,165.9,119.3,166.3z"/>
		<path class="st1" d="M95.4,158.4c-0.4,0.9,0,1.9,0.9,2.3c1.1,0.5,2.2,0.9,3.2,1.3c2.9-0.1,5.7-0.4,8.4-0.9
			c-3.5-0.9-6.9-2.1-10.2-3.5C96.8,157.1,95.8,157.5,95.4,158.4z"/>
		<path class="st1" d="M91.8,154.5C80.7,148.1,72,138.6,66.5,127c-0.4-0.9-1.4-1.2-2.3-0.8c-0.9,0.4-1.2,1.4-0.8,2.3
			c5.8,12.2,15,22.2,26.7,29c0.3,0.2,0.6,0.2,0.9,0.2c0.6,0,1.2-0.3,1.5-0.9C92.9,156,92.6,155,91.8,154.5z"/>
		<path class="st1" d="M63.9,120.8c-2.3-6.6-3.5-13.6-3.5-20.7c0-8.9,3.3-17.5,9.3-24.2c0.6-0.7,0.6-1.8-0.1-2.4
			c-0.7-0.6-1.8-0.6-2.4,0.1C60.6,80.9,57,90.3,57,100.2c0,7.5,1.2,14.8,3.7,21.8c0.2,0.7,0.9,1.1,1.6,1.1c0.2,0,0.4,0,0.6-0.1
			C63.8,122.8,64.3,121.8,63.9,120.8z"/>
		<path class="st1" d="M72.1,71.3c0.6,0.7,1.7,0.9,2.4,0.3c6.4-5,14.1-7.6,22.2-7.6c11.9,0,23,5.9,29.8,15.7
			c0.3,0.5,0.9,0.7,1.4,0.7c0.3,0,0.7-0.1,1-0.3c0.8-0.5,1-1.6,0.4-2.4c-7.4-10.7-19.6-17.1-32.6-17.1c-8.9,0-17.3,2.9-24.3,8.3
			C71.7,69.4,71.5,70.6,72.1,71.3z"/>
		<path class="st1" d="M133,106.3c0.2,0.1,0.5,0.1,0.7,0.1c0.7,0,1.3-0.4,1.6-1c0.7-1.7,1.1-3.4,1.1-5.2c0-5.7-1.2-11.2-3.5-16.3
			c-0.4-0.9-1.4-1.2-2.3-0.9c-0.9,0.4-1.2,1.4-0.9,2.3c2.1,4.7,3.2,9.7,3.2,14.9c0,1.3-0.3,2.6-0.8,3.9
			C131.7,105,132.1,106,133,106.3z"/>
		<path class="st1" d="M110.1,100.2c0,7.2,5.9,13.1,13.1,13.1c2.5,0,4.9-0.7,7-2c0.8-0.5,1-1.6,0.5-2.4s-1.6-1-2.4-0.5
			c-1.5,1-3.3,1.5-5.2,1.5c-5.3,0-9.7-4.3-9.7-9.7c0-9.3-7.6-16.9-16.9-16.9s-16.9,7.6-16.9,16.9c0,2.5,0.2,5,0.6,7.4
			c0.2,0.9,1,1.6,2,1.4c0.9-0.2,1.6-1,1.4-2c-0.4-2.2-0.6-4.5-0.6-6.8c0-7.4,6-13.5,13.5-13.5S110.1,92.8,110.1,100.2z"/>
		<path class="st1" d="M149.8,131.9c-1,1.7-2.1,3.4-3.2,4.9c0.3-0.2,0.7-0.4,1-0.6c0.8-0.5,1.5-1.1,2.3-1.6c0.7-0.6,0.9-1.6,0.3-2.4
			C150,132.1,149.9,132,149.8,131.9z"/>
		<path class="st1" d="M147.7,131.9c-0.7,0.5-1.4,1-2.1,1.5c-6.6,4.5-14.4,6.8-22.4,6.8c-17,0-32.2-10.8-37.8-26.9
			c-0.3-0.9-1.3-1.4-2.2-1c-0.9,0.3-1.4,1.3-1,2.2c6.1,17.4,22.6,29.2,41,29.2c8.3,0,16.3-2.3,23.3-6.8c1.2-1.6,2.2-3.2,3.2-4.9
			C149.2,131.4,148.3,131.4,147.7,131.9z"/>
		<path class="st1" d="M151.3,103.8c0.1-0.9-0.5-1.8-1.5-1.9c-0.9-0.1-1.8,0.5-1.9,1.5c-1.6,12.3-12.2,21.7-24.6,21.7
			c-13.7,0-24.8-11.1-24.8-24.8c0-0.9-0.8-1.7-1.7-1.7s-1.7,0.8-1.7,1.7c0,15.6,12.7,28.3,28.3,28.3
			C137.4,128.5,149.4,117.8,151.3,103.8z"/>
		<path class="st1" d="M81.6,51.1c4.9-1.5,9.9-2.2,15-2.2c27,0,49.6,21.1,51.3,48.1c0.1,0.9,0.8,1.6,1.7,1.6h0.1
			c0.9-0.1,1.7-0.9,1.6-1.8c-1.8-28.8-25.9-51.3-54.7-51.3c-5.5,0-10.9,0.8-16,2.4c-0.9,0.3-1.4,1.2-1.1,2.1
			C79.8,50.8,80.7,51.4,81.6,51.1z"/>
		<path class="st1" d="M75.5,53.4c0.9-0.4,1.2-1.4,0.8-2.3c-0.4-0.9-1.4-1.2-2.3-0.8c-18.5,8.4-30.7,26.2-32,46.4
			c-0.1,0.9,0.7,1.8,1.6,1.8h0.1c0.9,0,1.6-0.7,1.7-1.6C46.6,77.9,58.1,61.3,75.5,53.4z"/>
		<path class="st1" d="M57.2,147.6c0.3,0.4,0.8,0.7,1.3,0.7c-0.7-0.5-1.3-1.1-2-1.7C56.7,147,56.9,147.4,57.2,147.6z"/>
		<path class="st1" d="M59.5,148c0.8-0.6,0.9-1.6,0.4-2.4C51,133.3,46,118.8,45.3,103.6c0-0.9-0.8-1.7-1.8-1.6
			c-0.9,0-1.7,0.8-1.6,1.8c0.7,15.5,5.7,30.3,14.6,43c0.6,0.6,1.3,1.1,2,1.7h0.1C58.9,148.4,59.2,148.3,59.5,148z"/>
		<path class="st1" d="M61.5,153.1c9.8,11.4,22.4,19.8,36.6,24.5c0.2,0.1,0.4,0.1,0.5,0.1c0.7,0,1.4-0.5,1.6-1.2
			c0.3-0.9-0.2-1.9-1.1-2.2c-12.1-4-23.1-10.9-32-20.1c-1.9-1.1-3.8-2.2-5.5-3.5C60.9,151.4,60.9,152.5,61.5,153.1z"/>
		<path class="st1" d="M61.6,150.6C61.6,150.8,61.6,150.8,61.6,150.6c1.7,1.3,3.6,2.5,5.5,3.6c-1.1-1.1-2.1-2.2-3.1-3.4
			C63.4,150.1,62.4,150,61.6,150.6z"/>
		<path class="st1" d="M150.9,120.3c-0.7-0.6-1.8-0.5-2.4,0.3c-2.3,2.9-5.1,5.3-8.3,7.3c-4,2.5-8.4,4-13.1,4.6
			c-0.9,0.1-1.6,1-1.5,1.9s0.8,1.5,1.7,1.5c0.1,0,0.1,0,0.2,0c5.2-0.6,10-2.3,14.5-5.1c3.5-2.1,6.5-4.8,9.1-8
			C151.7,122,151.6,120.8,150.9,120.3z"/>
		<path class="st1" d="M120.5,132.6c-16.7-1.4-29.8-15.6-29.8-32.3c0-3.2,2.6-5.9,5.9-5.9c3.2,0,5.9,2.6,5.9,5.9
			c0,4.1,1.2,8.1,3.5,11.6c0.5,0.8,1.6,1,2.4,0.5s1-1.6,0.5-2.4c-1.9-2.9-3-6.2-3-9.6c0-5.1-4.2-9.3-9.3-9.3c-5.1,0-9.3,4.2-9.3,9.3
			c0,9,3.4,17.7,9.5,24.3c6.1,6.6,14.4,10.7,23.3,11.4h0.1c0.9,0,1.6-0.7,1.7-1.6C122.2,133.5,121.5,132.6,120.5,132.6z"/>
		<path class="st1" d="M113.2,114.3c-0.8-0.5-1.8-0.4-2.4,0.4c-0.5,0.8-0.4,1.8,0.4,2.4c3.5,2.5,7.6,3.8,12,3.8
			c11.4,0,20.7-9.3,20.7-20.7c0-14.8-7.1-29-19.1-37.9c-0.8-0.6-1.8-0.4-2.4,0.4c-0.6,0.8-0.4,1.8,0.4,2.4
			c11.1,8.3,17.7,21.4,17.7,35.2c0,9.5-7.7,17.3-17.3,17.3C119.6,117.5,116.2,116.3,113.2,114.3z"/>
		<path class="st1" d="M117.2,61.5c0.3,0.2,0.6,0.2,0.8,0.2c0.6,0,1.2-0.3,1.5-0.9c0.4-0.8,0.1-1.9-0.7-2.3
			C112,54.9,104.4,53,96.6,53c-0.9,0-1.7,0.8-1.7,1.7s0.8,1.7,1.7,1.7C103.8,56.4,110.9,58.2,117.2,61.5z"/>
		<path class="st1" d="M89.9,56.9c0.9-0.1,1.6-1,1.4-2c-0.1-0.9-1-1.6-2-1.4c-8.5,1.3-16.5,5-23.1,10.6C59.7,69.7,54.8,76.9,52,84.8
			c-0.3,0.9,0.2,1.9,1.1,2.2c0.2,0.1,0.4,0.1,0.6,0.1c0.7,0,1.4-0.4,1.6-1.2C60.5,70.6,73.8,59.5,89.9,56.9z"/>
		<path class="st1" d="M116,173.6c1.4,0.1,2.9,0.2,4.3,0.3c0,0,0,0,0.1,0c0.9,0,1.7-0.7,1.7-1.6s-0.7-1.7-1.6-1.8
			c-1.4-0.1-2.7-0.1-4.1-0.3c-10.1-1-19.6-4.1-27.9-8.8c-3.1-0.4-6.2-1.1-9.1-2C90,167.4,102.6,172.4,116,173.6z"/>
		<path class="st1" d="M52.9,100.2c0-2.6,0.2-5.1,0.7-7.6c0.2-0.9-0.5-1.8-1.4-2s-1.8,0.5-2,1.4c-0.5,2.7-0.7,5.5-0.7,8.2
			c0,18.4,6.9,36.1,19.3,49.7c3.2,3.5,6.8,6.7,10.6,9.6c3,0.9,6,1.6,9.1,2C67,149.4,52.9,126.3,52.9,100.2z"/>
	</g>
</g>
<g id="Camada_3">
</g>
</svg>
