<?xml version="1.0" encoding="utf-8"?>
<!-- Generator: Adobe Illustrator 21.0.0, SVG Export Plug-In . SVG Version: 6.00 Build 0)  -->
<svg version="1.1" id="Layer_1" xmlns="http://www.w3.org/2000/svg" xmlns:xlink="http://www.w3.org/1999/xlink" x="0px" y="0px"
	 viewBox="0 0 200 200" style="enable-background:new 0 0 200 200;" xml:space="preserve">
<style type="text/css">
	.st0{fill:#0C2443;}
	.st1{fill:#74C4DD;}
	.st2{fill:#25939E;}
	.st3{fill:#5DDDE7;}
	.st4{fill:#C83643;}
	.st5{fill:#DE6776;}
	.st6{opacity:0.67;fill:#E6F3F6;enable-background:new    ;}
</style>
<g id="Camada_2">
</g>
<g id="Camada_1">
	<g>
		<polygon class="st0" points="117.7,170.7 107.7,115.7 106.8,97.4 129.6,74.8 132.9,45.8 129.9,43.8 130.3,37.5 127.3,31.8 
			120.8,30.9 116.3,36.7 115.8,35.4 112.4,29.4 106.8,28.4 103.4,33.5 101.3,28.6 94.8,29.1 91.6,35.6 90.3,33.1 85.7,33.6 
			81.3,38.8 72.6,59 72.8,88.4 69.4,170.7 		"/>
		<polygon class="st1" points="95.2,50.5 98.3,54.4 103.8,52.1 103.2,33.9 101.3,28.5 94.8,28.9 93.8,31.4 94.3,43.3 		"/>
		<polygon class="st1" points="88.1,52 91.9,50.5 93.3,47.6 90.3,33.1 86.1,32.7 81.7,38.4 84.1,47.6 		"/>
		<path class="st1" d="M133.3,45.6l-3-1.8l0.4-6.3l-2.9-5.6l-6.9-1l-3.4,8L117,38l-0.8-2.6l-3.4-6.1l-5.9-0.9l-1.6,7.6l0.5,10.7
			l2.3,7.5l4.3-0.8l2.2-2.7l-2.8-4.9l1-4.9l0.8-0.4l-0.4,5.1l4.1,4.7l7.9,1.6l-5.1,3.3l-0.9,8.5l4.4,3.8l-4.8-1.5l-0.2,5.4l-2-5.3
			l-8.4-1.5l-12.1,8.8l-5,5.7l0.1-1.5l10.6-15.3l-19.2-1.6l-3.2,7.4l2.1,20.5l6.6,4L83.8,94l9.9,4.4l-1.3,27.1l-11,42.3l35.7,1.7
			l-9-53.8l-0.9-18.3l22.9-22.6L133.3,45.6z M95.8,137.4L95.8,100l0.9-2.7l0.5,4.7L95.8,137.4z M94.6,94.4v-6.9l3.7,6.3l8.5,1.5
			L94.6,94.4z"/>
		<polygon class="st1" points="88.1,101.9 83.9,146.9 88.6,121.1 90.9,103.7 		"/>
		<polygon class="st2" points="54.3,170.2 45.3,119.1 44.5,103.3 64.3,83.8 67.7,58.8 64.4,57 64.8,51.5 62.3,46.7 56.7,45.9 
			52.7,50.9 52.3,49.8 49.5,44.6 44.3,43.7 41.3,48.1 39.5,44.4 34.3,44.3 31.5,49.7 29.6,48.3 26.3,48.2 22.5,52.7 14.9,70.1 
			15.1,95.5 12.4,169.9 		"/>
		<polygon class="st3" points="34,63.1 37.2,66.4 41,64.5 41,48.4 39.8,44 34.7,43.9 33.3,46.5 34,56.8 		"/>
		<polygon class="st3" points="28.5,63.6 31.5,62.3 33.2,60 30,47.5 26.6,47.5 23,52 25,60.3 		"/>
		<path class="st3" d="M68.1,58.8L64.8,57l0.4-5.4l-2.5-4.9L57,45.9l-3.4,6.2L53.4,52l-0.7-2.2l-2.9-5.2l-5.1-0.9l-2.1,6.4v9.4
			l0.9,5.3l4.5,0.7l3.3-2.5l-4.1-10.4l6.4,10.6l6.9,1l-4.9,2.8l-0.8,7l4.3,3.6l-4.2-2l0.6,4.9l-2-4.1l-6.9-0.8c0,0-11.5,6.8-11.4,7
			c0.1,0.2-5.7,8.3-5.7,8.3l7.8-18.7L23,71.8L21,78l1.8,17.7l5.7,3.4l-3.7,1.2l8.5,3.8L32,127.6l-8.2,39.7l29.3,2l-7.6-50.1
			l-0.8-15.8l19.8-19.5L68.1,58.8z M35,137.8l-0.1-32.3l0.8-2.3l0.4,4.1L35,137.8z M34,100.7v-5.9l3.2,5.5l7.3,1.3L34,100.7z"/>
		<polygon class="st3" points="28.4,109.7 24.8,146 28.8,123.8 30.5,111.5 		"/>
		<polygon class="st4" points="175.8,170.4 166.6,120.8 165.8,105 185.6,85.5 188.9,60.5 185.8,58.7 186.1,53.2 183.6,48.4 
			177.9,47.6 173.9,52.6 173.6,51.5 170.8,46.3 165.6,45.4 162.6,49.8 160.8,46.1 155.6,46 152.8,51.4 150.9,50 147.6,49.9 
			143.9,54.4 136.3,71.8 136.4,97.2 133.3,170.2 		"/>
		<polygon class="st5" points="155.3,64.8 158.4,68.1 162.4,66.2 162.4,50.1 161.1,45.7 155.9,45.6 154.6,48.2 155.3,58.5 		"/>
		<polygon class="st5" points="149.8,65.3 152.9,64 154.4,61.7 151.3,49.2 147.9,49.2 144.3,53.7 146.1,62 		"/>
		<path class="st5" d="M189.3,60.5l-3.2-1.8l0.4-5.4l-2.5-4.9l-5.7-0.8l-3.4,6.2l-0.2-0.1l-0.7-2.2l-2.9-5.2l-5.1-0.9l-2.1,6.4v9.4
			l0.9,5.3l4.5,0.7l3.3-2.5l-4.1-10.4l6.4,10.6l6.9,1l-4.9,2.8l-0.8,7l4.3,3.6l-4.2-2l0.6,4.9l-2-4.1l-6.8-0.8c0,0-11.5,6.8-11.4,7
			c0.1,0.2-5.7,8.3-5.7,8.3l7.8-18.7l-14.4-0.5l-2,6.2l1.8,17.7l5.7,3.4l-3.7,1.2l8.5,3.8l-1.2,23.4l-7.7,38.3l29.3,1.7l-8.1-48.4
			l-0.8-15.8l19.8-19.5L189.3,60.5z M156.4,139.5l-0.1-32.3l0.8-2.3l0.4,4.1L156.4,139.5z M155.3,102.4v-5.9l3.2,5.5l7.3,1.3
			L155.3,102.4z"/>
		<polygon class="st5" points="149.6,111.5 146.1,147.6 150.1,125.5 151.8,113.2 		"/>
		<polygon class="st6" points="121.3,31.3 127.8,32.1 130.4,37.3 		"/>
		<polygon class="st6" points="113.8,40.8 117.8,42.8 130.1,43.7 		"/>
		<polygon class="st6" points="107.8,29 113.1,29.8 115.4,34.1 		"/>
		<polygon class="st6" points="97.3,29.1 101.3,28.8 102.3,32.5 		"/>
		<polygon class="st6" points="86.9,33.2 90.3,33.4 91.3,37.1 		"/>
	</g>
</g>
<g id="Camada_3">
</g>
</svg>
