<?xml version="1.0" encoding="utf-8"?>
<!-- Generator: Adobe Illustrator 21.0.0, SVG Export Plug-In . SVG Version: 6.00 Build 0)  -->
<svg version="1.1" id="Layer_1" xmlns="http://www.w3.org/2000/svg" xmlns:xlink="http://www.w3.org/1999/xlink" x="0px" y="0px"
	 viewBox="0 0 200 200" style="enable-background:new 0 0 200 200;" xml:space="preserve">
<style type="text/css">
	.st0{fill:#74C3DC;}
	.st1{fill:#5DDCE6;}
	.st2{fill:#094448;}
	.st3{fill:#081633;}
	.st4{fill:#3080A6;}
	.st5{fill:#E5F2F5;}
	.st6{fill:#2696A1;}
	.st7{fill:#0C2443;}
	.st8{fill:#C73643;}
	.st9{fill:#771C2B;}
	.st10{fill:#B74E63;}
	.st11{fill:#DD6776;}
	.st12{fill:#F1CCD2;}
</style>
<g id="Camada_2">
</g>
<g id="Camada_1">
	<g>
		<path class="st0" d="M155.1,116.5l0.8,12.5l1.9,7.9c0,0-1.9,0.9-2.6,1.2c-21,7.9-42,15-63.1,22.8c-2.9,1.1-5.8,2.5-8.9,3.1
			c-0.4,0-0.7-0.1-1-0.4c-0.5-0.9-0.4-1.8-0.4-2.8c0.2-5.8-8.6-21.1-12-22c-16.9-4.4-33.7-8.9-50.6-13.2c-0.6-0.2-1.3-0.3-1.9-0.6
			c-0.8-0.8-0.2-1.5,0.2-2.1c0.8-1.1,1.5-2.3,2.6-3.1c1.1-0.7,2.2-0.4,3.4-0.1c19.9,4.8,39.8,9.9,59.7,14.8c0.4,0,0.7,0.1,1,0.3
			c1.3,0.9,0.6,2.1,0.5,3.2c-0.2,2.3-0.1,2.4,2,1.7c14.7-5.2,29.5-10.2,44.3-15.4c7.2-2.5,14.4-4.9,21.5-7.5
			C153.5,116.4,155.1,116.5,155.1,116.5z"/>
		<path class="st1" d="M162.6,141.8c7.8,2.3,24.7,7,24.7,7l-19.9,7.6l1,1.5l-0.7,2.9l-7.6,2.9l8.7,2.6h8.6l1.5-4.3l4.6-4.5l9.1-3
			l-7.1,8l-5.8,3.7h8.5l-6.3,3.3l-14.4-0.6c0,0-6.7-2.5-10.3-3.9c-0.9-0.3-9.7,3.4-9.7,3.4L136,168l-27.3,9.4c0,0-27-6.9-28-7.3
			c0.1-0.4,0.4-0.6,0.8-0.6c8.7-1.6,16.7-5.3,25-8.1c8.5-2.8,17-5.8,25.4-8.8c9.9-3.5,19.9-6.7,29.7-10.5
			C162.1,141.7,162.4,141.6,162.6,141.8z"/>
		<path class="st2" d="M162.6,141.8c-0.5,0.7-1.2,1-2,1.2c-24.8,8.6-74.2,25.8-74.2,25.8l-5.6,1l-60.3-16.9l-3.5-2.1l-7.1-9.6
			l-2.3-13.1l1.6-12.5l6.2-4.8c0,0,24.7-8.2,37.1-12.3c0.2,0,0.4,0.1,0.6,0.2c1,1.3,2.4,2.4,1.6,4.3c-0.5,0.4-1.1,0.6-1.8,0.8
			c-10.7,3.1-21.3,6-31.9,9.2c5.3,1.2,10.6,2.6,15.9,3.9c14.4,3.6,28.9,7,43.4,10.6c1.7,0.4,3.3,0.4,4.9-0.1
			c4.8-1.3,9.4-3.3,14.2-4.4c0.8-0.1,1.6,0.1,2.4,0.2c0.6,0.2,1.2,0.4,1.2,1.1c0,0.8-0.8,0.9-1.4,1.2c-4.2,1.6-12.8,4.1-12.8,4.1
			l-4.6,5.5c0,0-36.5-8.8-54.3-13.3c-2.5-0.6-4.9-1.2-7.4-1.9c-0.8-0.2-1.6-0.4-2.3,0.2c-2.8-0.8-6.2,0.5-7.7,3
			c-0.4,0.6-0.4,1.2-0.3,1.9c0.5,4.5,2.8,6.3,3.3,10.8c0.4,3.4,1.1,8.1,3.4,10c20.5,5.7,41,11.2,61.6,16.8c0.7,0.2,1.4,0.4,2,0.9
			c0.3,0,0.6,0,0.9,0.1c0,0.2,0,0.4-0.2,0.6c-0.5,0.5-0.7,1.8-0.7,1.8l2-0.1c0,0,36.1-12,54.2-18c7.1-2.4,14.1-4.7,21.2-7
			c0.9-0.3,2.5-1.6,2.5-1.6S162.7,141.4,162.6,141.8z"/>
		<path class="st3" d="M84.4,130.4l17.5-5.7l0.9-0.6c0,0-0.6-0.3-0.9-0.4c-0.1-1.6,1.3-1.8,2.3-2.1c4.6-1.4,9.1-3,13.7-4.4
			c7.5-2.4,15-4.6,22.4-7.3c0.3-0.1,0.7-0.1,1,0c1.5,0.8,2.9,0.5,4.4,0c4.7-1.5,14.1-4.6,14.1-4.6h1.9l-1.5,5.1l-1.7,0.7
			c0,0-73.1,24-74.2,23.9C84,134.9,84.4,130.4,84.4,130.4z"/>
		<path class="st3" d="M162.4,140l-16.7,6.2l-61.7,20l-2.3,0.4l0.8-3.1l49.1-18c0,0,25.4-8.5,26.1-8.7c0.2,0.1,4.3,0.6,4.3,0.6
			L162.4,140z"/>
		<polygon class="st4" points="84.2,135 156.1,111.9 155.2,116.5 83,141.1 		"/>
		<path class="st2" d="M161.7,105.3c0,0-10.4,3.3-16.3,5.3c-1.5,0.5-2.8,0.7-4.1-0.4c0.2-0.9,1-1,1.7-1.2c3.6-1.1,7-2.4,10.6-3.5
			c-0.4-0.6-1.1-0.5-1.7-0.6c-13.6-2.7-27.1-5.7-40.7-8.3c-1.1-0.2-2.3-0.4-3.2-1.2c-0.4-1.3-0.1-2.3,1.2-2.9
			c17.4,3.9,52.1,11.6,52.1,11.6L161.7,105.3z"/>
		<path class="st5" d="M82.5,163.5c-4.5-0.6-8.7-2.2-13-3.3c-17-4.6-33.9-9.2-50.8-13.8c-0.7-0.8-0.9-1.8-1.1-2.8
			c-0.6-5.2-1.4-10.5-2-15.7c-0.2-1.5-0.3-3,1.6-3.4c5.7,1,16.9,4.2,16.9,4.2L81,140.3l-0.7,5.1C80.3,145.3,82.5,159.7,82.5,163.5z"
			/>
		<polygon class="st3" points="17.2,124.4 16.2,128.1 18.6,146.4 13.3,139.5 11.3,127.2 12.3,121.3 15.8,118.4 21.3,119.6 		"/>
		<path class="st6" d="M54.9,102.6c2,4.2,6,6.1,9.6,8.4c2.3,2,5.3,2.4,8,3.3c8.3,2.7,16.5,5.9,25,7.8c0.8,0.2,1.6,0.3,2,1.2
			c-5.2,1.7-10.5,3.5-15.7,5.1c-0.8,0.2-43.6-10.3-63.8-15.2C19.7,113.1,43.2,106,54.9,102.6z"/>
		<path class="st7" d="M99.5,123.2c-9.3-2.2-27.4-8.4-27.4-8.4l-5-1.5c0,0-2-1.3-2.7-2.3c4.5-0.3,9.1-0.3,13.6-1.3
			c2-0.5,4,0.6,5.9,1.1c1.3,0.3,2.5,0.8,3.8,0.5c2.3,0,1.2-2.4,3.4-3c3.6-1,4.7-1,6.2-5.3c0.3-0.8,7.1,0.4,7.5-0.4
			c0.8-0.7,1.7-0.4,2.5-0.3c8.6,1.3,17.1,2.8,25.7,4.2c2.6,0.4,7.4,3.5,7.4,3.5l-10.1,3.6c0,0-13.9,4.5-20.9,6.7
			c-1.9,0.6-5.8,1.8-5.8,1.8l-1.8,1.4C101.8,123.6,100.3,123.4,99.5,123.2z"/>
		<path class="st6" d="M140.4,110.1c0,0-10.1-3.4-15.5-4.2c-6.7-1-13.3-2.2-20-3.3c1-2.5,3.1-7.5,3.1-7.5l47.6,10.2l-14.3,4.7
			L140.4,110.1z"/>
		<path class="st8" d="M52.8,98.7c-0.1,0-8.9-24.8-8.9-24.8l-0.1-2.4l1.6-10.8l4.1-9.1l11.7-4.7c0,0,5.1-0.2,5.1-0.1
			c3.6,1,7,2.4,10.6,3.2c3.4,0.7,6.8,0.1,10.1-1c3.5-1.1,6.9-2.5,10.5-3c1.7-0.2,2.8,0.3,3.6,1.8c1.9,3.5,5,10.7,5,10.7v8.7
			L103.8,80l-8.4,17.7l-7.1,1.6l-11.8,4c0,0-6.4,2.4-10.1,2.3c-4.7,0-7.8-2.2-11.1-4.7C54.3,100.2,53.8,99.2,52.8,98.7z"/>
		<path class="st9" d="M52.8,98.7l6.5,4.7l4.4,1.5l7.8-5.6L91.2,97l12.7-21.7l1-16l-3.6-8.2l-5.5-3.3l-7.2,1.5l-7.2,1.9l-9.1-1.8
			L66.4,47l8.7,0.9l2.3-1.6l1.7-8.8l5.8-10.6l5.8-1.9c0,0-4.1,6.3-5.9,9.2c0.1,1,0.6,0.5,1,0.3c3.7-1.8,7.5-3.2,11.6-3.6
			c1.1-0.1,1.8-0.8,2.6-1.5c1-1,1.7-1.1,3.1-1.7c0.3,0,0.6-0.5,0.8-0.5c0.5,0,0.6,0.8,0.6,0.8s0.9,0.1,0.4,0.5
			c-0.5,0.5-1.1,0.9-2,1.5c4.6-0.8,8.9-1.2,13.3-1.3c0.6,0,1.5-0.5,1.8,0.6c-1.3,0.5-2.5,1-3.8,1.5c-6.2,1-12.5,1.7-18.7,3
			c-0.2,0-0.4,0.1-0.4,0c1.5,0.8,3.3,1.4,3.7,3.6l0,0c-1.7,0.6-3-0.4-4.1-1.5c-1.6-1.6-3.1-1.6-4.9-0.6c-1.3,0.7-2.7,1.4-4.3,1.6
			c-2.3-0.6-3.6,2.1-3.6,2.1s-1.1,5.7-1.7,8.9c3.3-0.4,6.5-0.8,9.6-1.1c3.2-0.4,9.6-1.2,9.6-1.2l4.6,1.8l8.1,7.1l3.3,13.5l-2.6,16.7
			l-7,18l-6.2,7.6l-12.1,1.6l-5.5-1l-5.8-0.2l-11.1,0.8l-9.4-6.7l-0.8-2.2L52.8,98.7z"/>
		<polygon class="st10" points="105.8,102.7 112.8,84.6 114.9,70.9 111.8,83.8 105.5,99.2 99.1,107.3 97.1,109.7 85.9,111.5 
			87.5,111.8 99.6,110.2 		"/>
		<polygon class="st11" points="48.3,66.9 52.3,54.5 65,50.1 80.8,54.5 93.9,54 97.4,66.8 88.9,85.9 80.1,86.6 60.3,94.7 54.5,88.5 
					"/>
		<path class="st12" d="M62.4,53.9c-1.9,4-3,4.9-7.1,5.7C57.1,57,59.1,54.9,62.4,53.9z"/>
		<path class="st2" d="M76.6,49.3l3.7-0.9C80.9,45.2,82,39,82,39s1.3-2.8,3.6-2.1c1.5-0.2,2.9-0.9,4.3-1.6c1.8-1,3.3-1,4.9,0.6
			c1,1.1,2.3,2.1,4.1,1.5l0,0c-0.4-2.1-2.1-2.7-3.6-3.5c0.1,0,0.2,0,0.3,0c6.2-1.3,12.5-2,18.7-3c1.3-0.5,2.5-1,3.8-1.5
			c-0.3-1-1.1-0.6-1.8-0.6c-4.4,0.1-8.8,0.4-13.4,1.2c0.8-0.6,1.5-1,2-1.5c0.5-0.4-0.1-1.7-0.1-1.7h-0.5l-2.1-0.1
			c0,0-1.3,1.7-2.4,2.7c-0.7,0.7-1.5,1.4-2.6,1.5c-4.1,0.4-7.9,1.8-11.6,3.6c-0.4,0.2-1,0.6-1-0.3c1.9-2.9,5.9-9.2,5.9-9.2l-5.6,1.9
			l-5.8,10.4l-1.7,8.8l-3,2L76.6,49.3z"/>
		<polygon class="st6" points="102.2,26.8 99.3,30.8 96.4,31.7 86.9,34.6 84.4,35.2 84.7,34.3 91.9,29.2 98.8,26.8 		"/>
		<polygon class="st6" points="98.8,37.3 94.6,33.6 101.5,31.8 114.7,30.6 		"/>
		<polygon class="st6" points="118,29.3 104.3,30.2 101.5,30.5 104.4,26.8 114,27.6 120.4,28 		"/>
		<polygon class="st6" points="84.1,36.8 92.2,34.2 94.3,34.7 97.3,37.5 		"/>
	</g>
</g>
<g id="Camada_3">
</g>
</svg>
