<?xml version="1.0" encoding="utf-8"?>
<!-- Generator: Adobe Illustrator 21.0.0, SVG Export Plug-In . SVG Version: 6.00 Build 0)  -->
<svg version="1.1" id="Layer_1" xmlns="http://www.w3.org/2000/svg" xmlns:xlink="http://www.w3.org/1999/xlink" x="0px" y="0px"
	 viewBox="0 0 180.7 189.3" style="enable-background:new 0 0 180.7 189.3;" xml:space="preserve">
<style type="text/css">
	.st0{fill:#5DDCE6;}
</style>
<g>
	<g>
		
			<rect x="38.7" y="78" transform="matrix(0.7071 -0.7071 0.7071 0.7071 -47.2164 58.4497)" class="st0" width="16.4" height="16.4"/>
	</g>
</g>
<g>
	<g>
		
			<rect x="163.9" y="31.2" transform="matrix(0.7071 -0.7071 0.7071 0.7071 23.2517 131.4833)" class="st0" width="12.9" height="12.9"/>
	</g>
</g>
<g>
	<g>
		<path class="st0" d="M64.7,74.1L56.6,66l8.1-8.1l8.1,8.1L64.7,74.1z M58.1,66l6.7,6.7l6.7-6.7l-6.7-6.7L58.1,66z"/>
	</g>
</g>
<g>
	<g>
		<path class="st0" d="M38.7,168.9l-6.6-6.6l6.6-6.6l6.6,6.6L38.7,168.9z M33.3,162.3l5.4,5.4l5.4-5.4l-5.4-5.4L33.3,162.3z"/>
	</g>
</g>
<g>
	<g>
		<path class="st0" d="M38.7,187.6l-7.3-7.3l7.3-7.3l7.3,7.3L38.7,187.6z M34,180.3l4.7,4.7l4.7-4.7l-4.7-4.7L34,180.3z"/>
	</g>
</g>
<g>
	<path class="st0" d="M46.9,30.4L29.1,48.2L46.9,66l17.8-17.8L46.9,30.4z M39.6,48.2l7.4-7.4l7.4,7.4L47,55.6L39.6,48.2z"/>
</g>
<g>
	<rect x="38.1" y="97.2" class="st0" width="1.8" height="55.3"/>
</g>
<g>
	<rect x="64.7" y="36.6" class="st0" width="88.9" height="1.8"/>
</g>
</svg>
