<?xml version="1.0" encoding="utf-8"?>
<!-- Generator: Adobe Illustrator 21.0.0, SVG Export Plug-In . SVG Version: 6.00 Build 0)  -->
<svg version="1.1" id="Layer_1" xmlns="http://www.w3.org/2000/svg" xmlns:xlink="http://www.w3.org/1999/xlink" x="0px" y="0px"
	 viewBox="0 0 191 132.9" style="enable-background:new 0 0 191 132.9;" xml:space="preserve">
<style type="text/css">
	.st0{fill:#5DDCE6;}
</style>
<g>
	<g>
		
			<rect x="138.9" y="39.9" transform="matrix(0.7071 -0.7071 0.7071 0.7071 9.0873 118.127)" class="st0" width="16.4" height="16.4"/>
	</g>
</g>
<g>
	<g>
		
			<rect x="111.8" y="91.1" transform="matrix(0.7071 -0.7071 0.7071 0.7071 -34.3259 112.2051)" class="st0" width="12.9" height="12.9"/>
	</g>
</g>
<g>
	<g>
		
			<rect x="4.2" y="91.1" transform="matrix(0.7071 -0.7071 0.7071 0.7071 -65.8416 36.1215)" class="st0" width="12.9" height="12.9"/>
	</g>
</g>
<g>
	<g>
		<path class="st0" d="M129.3,60l8.1,8.1l-8.1,8.1l-8.1-8.1L129.3,60z M136,68.1l-6.7-6.7l-6.7,6.7l6.7,6.7L136,68.1z"/>
	</g>
</g>
<g>
	<g>
		<path class="st0" d="M155.4,22.9l6.6,6.6l-6.6,6.6l-6.6-6.6L155.4,22.9z M160.8,29.4l-5.4-5.4l-5.4,5.4l5.4,5.4L160.8,29.4z"/>
	</g>
</g>
<g>
	<g>
		<path class="st0" d="M155.4,15.6l-7.3-7.3l7.3-7.3l7.3,7.3L155.4,15.6z M150.7,8.3l4.7,4.7l4.7-4.7l-4.7-4.7L150.7,8.3z"/>
	</g>
</g>
<g>
	<path class="st0" d="M147.1,103.7l17.8-17.8l-17.8-17.8l-17.8,17.8L147.1,103.7z M154.5,85.9l-7.4,7.4l-7.4-7.4l7.4-7.4L154.5,85.9
		z"/>
</g>
<g>
	<rect x="23.7" y="96.6" class="st0" width="76.6" height="1.8"/>
</g>
</svg>
